<?xml version="1.0" encoding="UTF-8" standalone="no"?>
<!-- Created with Inkscape (http://www.inkscape.org/) -->

<svg
   xmlns:dc="http://purl.org/dc/elements/1.1/"
   xmlns:cc="http://creativecommons.org/ns#"
   xmlns:rdf="http://www.w3.org/1999/02/22-rdf-syntax-ns#"
   xmlns:svg="http://www.w3.org/2000/svg"
   xmlns="http://www.w3.org/2000/svg"
   xmlns:sodipodi="http://sodipodi.sourceforge.net/DTD/sodipodi-0.dtd"
   xmlns:inkscape="http://www.inkscape.org/namespaces/inkscape"
   width="50.799999mm"
   height="50.799999mm"
   viewBox="0 0 50.8 50.8"
   version="1.1"
   id="svg2724"
   inkscape:version="0.92.5 (2060ec1f9f, 2020-04-08)"
   sodipodi:docname="logo-biologie.svg">
  <defs
     id="defs2718">
    <inkscape:path-effect
       effect="spiro"
       id="path-effect44325"
       is_visible="true"
       lpeversion="1" />
  </defs>
  <sodipodi:namedview
     id="base"
     pagecolor="#ffffff"
     bordercolor="#666666"
     borderopacity="1.0"
     inkscape:pageopacity="0"
     inkscape:pageshadow="2"
     inkscape:zoom="1.979899"
     inkscape:cx="-51.701664"
     inkscape:cy="65.132135"
     inkscape:document-units="mm"
     inkscape:current-layer="layer1"
     showgrid="false"
     fit-margin-top="0"
     fit-margin-left="0"
     fit-margin-right="0"
     fit-margin-bottom="0"
     inkscape:window-width="1920"
     inkscape:window-height="1016"
     inkscape:window-x="0"
     inkscape:window-y="27"
     inkscape:window-maximized="1"
     inkscape:snap-bbox="true"
     inkscape:bbox-nodes="true"
     inkscape:snap-page="true" />
  <metadata
     id="metadata2721">
    <rdf:RDF>
      <cc:Work
         rdf:about="">
        <dc:format>image/svg+xml</dc:format>
        <dc:type
           rdf:resource="http://purl.org/dc/dcmitype/StillImage" />
        <dc:title></dc:title>
      </cc:Work>
    </rdf:RDF>
  </metadata>
  <g
     inkscape:label="Layer 1"
     inkscape:groupmode="layer"
     id="layer1"
     transform="translate(-64.558334,-81.099998)">
    <path
       inkscape:connector-curvature="0"
       id="path44313"
       style="display:inline;opacity:1;vector-effect:none;fill:#f1c40f;fill-opacity:1;stroke:#2c3e50;stroke-width:2.11666012;stroke-linecap:round;stroke-linejoin:round;stroke-miterlimit:4;stroke-dasharray:none;stroke-dashoffset:0;stroke-opacity:1;marker:none;marker-start:none;marker-mid:none;marker-end:none;paint-order:normal"
       d="m 104.26411,110.78149 c -2.39777,0 -4.776311,1.06493 -6.377382,2.85504 -1.60107,1.79009 -2.399009,4.27668 -2.139389,6.66728 h 4.289581 c -0.108235,0.71092 -0.19831,1.42481 -0.268681,2.14049 -0.119301,1.21344 -0.179319,2.46928 0.217116,3.62196 0.306355,0.89074 0.885455,1.68684 1.644325,2.24233 0.75889,0.5555 1.69492,0.86615 2.63443,0.86334 0.93785,-0.003 1.8699,-0.31753 2.6268,-0.87291 0.7569,-0.5554 1.33653,-1.34699 1.65198,-2.23276 0.40954,-1.14998 0.37378,-2.41099 0.21712,-3.62196 -0.0932,-0.72027 -0.22732,-1.43548 -0.40145,-2.14049 h 4.42235 c 0.25962,-2.3906 -0.53831,-4.87719 -2.13939,-6.66728 -1.60107,-1.79011 -3.97962,-2.85504 -6.37741,-2.85504 z" />
    <path
       sodipodi:nodetypes="casscscsccssaccaaaaaacaasscscsssscassc"
       inkscape:original-d="m 54.554507,69.850428 c -0.326087,-3.304756 -0.250096,-4.29985 0.392672,-6.305137 1.095618,-3.418072 3.173966,-6.565405 5.703278,-9.133728 0.766142,-0.777958 3.05516,-1.91545 4.092796,-2.935535 1.939469,-1.906664 2.823669,-3.345042 2.823669,-3.345042 0,0 0.07181,-1.992686 0.388666,-2.939704 0.446779,-1.335324 0.319799,-3.164403 2.006522,-3.366305 0,0 1.547894,1.849717 2.233913,3.071269 0.686019,1.221551 0.808583,2.207397 0.808583,2.207397 0,0 1.73298,1.610011 2.946565,2.489509 1.213586,0.879497 0.982711,2.309538 1.695165,3.857209 0.712454,1.547672 0.273582,3.121364 0.273582,3.121364 0,0 -2.862643,0.610792 -4.305357,0.520184 -1.254449,-0.07878 -3.657532,-0.917118 -3.657532,-0.917118 0,0 0.971799,2.967685 1.004943,4.136724 0.03314,1.169041 0.201153,1.045962 0.554806,1.403909 0.430022,0.435242 1.136874,0.453113 1.698806,0.69516 0.78372,0.33758 1.705855,0.476094 2.332227,1.055607 0.427471,0.395493 0.890427,0.950618 0.841744,1.530942 -0.05931,0.706975 -0.668207,1.39231 -1.321849,1.668143 -1.106806,0.467065 -2.39852,-0.180237 -3.585205,-0.367176 -0.729028,-0.114844 -2.165215,-0.462481 -2.165215,-0.462481 0,0 -1.727789,2.064208 -2.077167,3.322834 -0.354955,1.278717 -0.720947,2.913725 0.06826,3.98062 0.54312,0.73422 0.779088,0.657926 2.605709,0.846648 1.82662,0.188724 2.312044,0.166304 3.303967,0.670007 0.991923,0.503703 0.571239,2.918884 0.571239,2.918884 0,0 -5.2432,0.01601 -8.393266,0 -3.150066,-0.01601 -5.936156,0.06326 -8.393266,0 -2.45711,-0.06326 -4.04436,-1.153219 -6.050232,-1.599456 -2.005872,-0.446237 -2.510233,-4.443091 -3.89139,-6.715147 -1.381158,-2.272055 1.602902,-12.961848 1.555991,-16.51663 -0.04691,-3.554782 -2.097688,-3.219972 -1.025903,-8.134164 1.071785,-4.914193 -2.696411,-0.932505 -2.696411,-0.932505 0,0 10.57664,-5.92507 14.820842,-3.183017 2.01765,1.303544 1.756204,5.538472 1.516521,7.044955 -0.239685,1.506482 -1.953369,4.063848 -2.470025,6.351367 -0.516656,2.287518 -0.658445,2.935515 -0.658445,2.935515"
       inkscape:path-effect="#path-effect44325"
       id="path44315"
       d="m 54.554507,69.850428 c -0.235841,-2.103249 -0.102308,-4.247402 0.392672,-6.305137 0.855202,-3.555254 2.833749,-6.867232 5.703278,-9.133728 1.318033,-1.041048 2.805604,-1.856587 4.092796,-2.935535 1.123808,-0.941997 2.083654,-2.079072 2.823669,-3.345042 -0.04278,-0.992543 0.08941,-1.992382 0.388666,-2.939704 0.397028,-1.256843 1.08986,-2.419195 2.006522,-3.366305 0.913123,0.885787 1.672431,1.929713 2.233913,3.071269 0.346501,0.704476 0.618049,1.445789 0.808583,2.207397 1.155804,0.589029 2.172813,1.448286 2.946565,2.489509 0.843998,1.135752 1.392912,2.474853 1.695165,3.857209 0.223706,1.023123 0.315895,2.074925 0.273582,3.121364 -1.382754,0.452276 -2.854675,0.630117 -4.305357,0.520184 -1.259388,-0.09544 -2.502113,-0.407048 -3.657532,-0.917118 0.391552,1.36434 0.726911,2.744806 1.004943,4.136724 0.04996,0.250137 0.09832,0.50156 0.180549,0.74302 0.08223,0.24146 0.200186,0.474437 0.374257,0.660889 0.212275,0.227373 0.497869,0.374829 0.792798,0.473703 0.294929,0.09887 0.602564,0.15304 0.906008,0.221457 0.840515,0.18951 1.67302,0.500787 2.332227,1.055607 0.23,0.193579 0.43791,0.416847 0.590903,0.675625 0.152992,0.258779 0.249512,0.554699 0.250841,0.855317 0.0017,0.378302 -0.149567,0.750153 -0.392458,1.040185 -0.242891,0.290033 -0.573186,0.500551 -0.929391,0.627958 -0.575672,0.205906 -1.20877,0.19859 -1.811392,0.09543 -0.602622,-0.103162 -1.184949,-0.298181 -1.773813,-0.462604 -0.711283,-0.198604 -1.434862,-0.353158 -2.165215,-0.462481 -0.837909,1.007247 -1.538745,2.128371 -2.077167,3.322834 -0.289997,0.643344 -0.535757,1.320356 -0.573744,2.025017 -0.01899,0.35233 0.01503,0.709104 0.118949,1.046295 0.103921,0.337191 0.27901,0.654476 0.523055,0.909308 0.324373,0.338711 0.759659,0.556614 1.212256,0.679489 0.452597,0.122876 0.924606,0.155981 1.393453,0.167159 0.572679,0.01365 1.148029,-0.0044 1.716109,0.06933 0.56808,0.0737 1.137691,0.246421 1.587858,0.600676 0.424399,0.333976 0.72359,0.823434 0.827313,1.35343 0.103723,0.529997 0.01112,1.09613 -0.256074,1.565454 -2.797416,-0.05335 -5.59585,-0.05335 -8.393266,0 -2.798027,0.05336 -5.59931,0.160028 -8.393266,0 -2.108321,-0.120757 -4.295356,-0.424718 -6.050232,-1.599456 -1.103493,-0.738693 -1.977014,-1.791084 -2.607534,-2.959762 -0.63052,-1.168678 -1.026269,-2.452691 -1.283856,-3.755385 -1.081698,-5.470462 0.238686,-11.098075 1.555991,-16.51663 0.340901,-1.40225 0.684385,-2.826249 0.630534,-4.268336 -0.02693,-0.721044 -0.155127,-1.442233 -0.42433,-2.11168 -0.269204,-0.669446 -0.682742,-1.286359 -1.232107,-1.754148 -0.741104,-0.631056 -1.72379,-0.9709 -2.696411,-0.932505 0.346289,-1.54583 1.143615,-2.987819 2.268703,-4.103023 1.125089,-1.115205 2.574058,-1.899776 4.122883,-2.232411 1.548825,-0.332635 3.192161,-0.212187 4.675934,0.342722 1.483772,0.554909 2.802861,1.542364 3.753322,2.809695 1.485464,1.980696 2.022097,4.62129 1.516521,7.044955 -0.46466,2.227515 -1.733028,4.198562 -2.470025,6.351367 -0.325448,0.950649 -0.546675,1.936937 -0.658445,2.935515"
       style="display:inline;opacity:1;vector-effect:none;fill:#ffffff;fill-opacity:1;stroke:#2c3e50;stroke-width:2.11666679;stroke-linecap:round;stroke-linejoin:round;stroke-miterlimit:4;stroke-dasharray:none;stroke-dashoffset:0;stroke-opacity:1;marker:none;marker-start:none;marker-mid:none;marker-end:none;paint-order:normal"
       inkscape:connector-curvature="0"
       transform="translate(22.972529,50.241037)" />
    <circle
       r="1.3573328"
       cy="101.81938"
       cx="95.23539"
       id="circle44317"
       style="display:inline;opacity:1;vector-effect:none;fill:#2c3e50;fill-opacity:1;stroke:none;stroke-width:2.11666656;stroke-linecap:round;stroke-linejoin:round;stroke-miterlimit:4;stroke-dasharray:none;stroke-dashoffset:0;stroke-opacity:1;marker:none;marker-start:none;marker-mid:none;marker-end:none;paint-order:normal" />
  </g>
</svg>
